<svg width="1065" height="260" viewBox="0 0 1065 260" fill="none" xmlns="http://www.w3.org/2000/svg">
<g filter="url(#filter0_i_193_351)">
<path d="M399.704 20.6062C417.982 20.6062 433.955 24.2289 447.622 31.4742C461.29 38.7195 471.828 48.9289 479.238 62.1022C486.813 75.1109 490.6 90.1779 490.6 107.303C490.6 124.264 486.813 139.331 479.238 152.504C471.828 165.678 461.207 175.887 447.375 183.132C433.708 190.378 417.818 194 399.704 194H334.743V20.6062H399.704ZM396.987 157.444C412.96 157.444 425.392 153.081 434.284 144.353C443.176 135.626 447.622 123.276 447.622 107.303C447.622 91.3305 443.176 78.8982 434.284 70.0062C425.392 61.1142 412.96 56.6682 396.987 56.6682H376.98V157.444H396.987Z" fill="#10B981"/>
<path d="M654.994 56.1742L568.544 259.455H523.096L554.712 189.307L498.643 56.1742H545.82L577.683 142.377L609.299 56.1742H654.994Z" fill="#10B981"/>
<path d="M733.006 195.976C719.503 195.976 707.318 193.095 696.45 187.331C685.746 181.568 677.266 173.335 671.009 162.631C664.916 151.928 661.87 139.413 661.87 125.087C661.87 110.926 664.998 98.4935 671.256 87.7902C677.513 76.9222 686.076 68.6065 696.944 62.8432C707.812 57.0799 719.997 54.1982 733.5 54.1982C747.002 54.1982 759.188 57.0799 770.056 62.8432C780.924 68.6065 789.486 76.9222 795.744 87.7902C802.001 98.4935 805.13 110.926 805.13 125.087C805.13 139.249 801.919 151.763 795.497 162.631C789.239 173.335 780.594 181.568 769.562 187.331C758.694 193.095 746.508 195.976 733.006 195.976ZM733.006 159.42C741.074 159.42 747.908 156.456 753.507 150.528C759.27 144.6 762.152 136.12 762.152 125.087C762.152 114.055 759.352 105.574 753.754 99.6462C748.32 93.7182 741.568 90.7542 733.5 90.7542C725.266 90.7542 718.433 93.7182 712.999 99.6462C707.565 105.41 704.848 113.89 704.848 125.087C704.848 136.12 707.482 144.6 712.752 150.528C718.186 156.456 724.937 159.42 733.006 159.42Z" fill="#10B981"/>
<path d="M904.354 158.185V194H882.865C867.551 194 855.613 190.295 847.05 182.885C838.487 175.311 834.206 163.043 834.206 146.082V91.2482H817.41V56.1742H834.206V22.5822H876.443V56.1742H904.107V91.2482H876.443V146.576C876.443 150.693 877.431 153.657 879.407 155.468C881.383 157.28 884.676 158.185 889.287 158.185H904.354Z" fill="#10B981"/>
<path d="M919.483 124.84C919.483 110.679 922.118 98.2465 927.387 87.5432C932.821 76.8399 940.149 68.6065 949.37 62.8432C958.591 57.0799 968.883 54.1982 980.245 54.1982C989.96 54.1982 998.441 56.1742 1005.69 60.1262C1013.1 64.0782 1018.78 69.2652 1022.73 75.6872V56.1742H1064.97V194H1022.73V174.487C1018.61 180.909 1012.85 186.096 1005.44 190.048C998.194 194 989.713 195.976 979.998 195.976C968.801 195.976 958.591 193.095 949.37 187.331C940.149 181.403 932.821 173.088 927.387 162.384C922.118 151.516 919.483 139.002 919.483 124.84ZM1022.73 125.087C1022.73 114.549 1019.76 106.233 1013.84 100.14C1008.07 94.0475 1000.99 91.0012 992.595 91.0012C984.197 91.0012 977.034 94.0475 971.106 100.14C965.343 106.068 962.461 114.302 962.461 124.84C962.461 135.379 965.343 143.777 971.106 150.034C977.034 156.127 984.197 159.173 992.595 159.173C1000.99 159.173 1008.07 156.127 1013.84 150.034C1019.76 143.942 1022.73 135.626 1022.73 125.087Z" fill="#10B981"/>
<path d="M135.049 20.6062V54.4452H89.1072V194H46.8702V54.4452H0.928223V20.6062H135.049Z" fill="black"/>
<path d="M198.484 79.1452C203.424 71.5705 209.599 65.6425 217.009 61.3612C224.419 56.9152 232.652 54.6922 241.709 54.6922V99.3992H230.1C219.561 99.3992 211.657 101.705 206.388 106.315C201.119 110.761 198.484 118.665 198.484 130.027V194H156.247V56.1742H198.484V79.1452Z" fill="black"/>
<path d="M304.134 56.1742V194H261.897V56.1742H304.134Z" fill="black"/>
<path d="M89.1989 194.2V152H47V194.2H89.1989Z" fill="#10B981"/>
<path d="M283.099 0C271.447 0 262 9.4471 262 21.1C262 32.7529 271.447 42.2 283.099 42.2C294.752 42.2 304.199 32.7529 304.199 21.1C304.199 9.4471 294.752 0 283.099 0Z" fill="black"/>
</g>
<defs>
<filter id="filter0_i_193_351" x="0.928223" y="0" width="1064.04" height="263.455" filterUnits="userSpaceOnUse" color-interpolation-filters="sRGB">
<feFlood flood-opacity="0" result="BackgroundImageFix"/>
<feBlend mode="normal" in="SourceGraphic" in2="BackgroundImageFix" result="shape"/>
<feColorMatrix in="SourceAlpha" type="matrix" values="0 0 0 0 0 0 0 0 0 0 0 0 0 0 0 0 0 0 127 0" result="hardAlpha"/>
<feOffset dy="4"/>
<feGaussianBlur stdDeviation="10"/>
<feComposite in2="hardAlpha" operator="arithmetic" k2="-1" k3="1"/>
<feColorMatrix type="matrix" values="0 0 0 0 1 0 0 0 0 1 0 0 0 0 1 0 0 0 0.25 0"/>
<feBlend mode="normal" in2="shape" result="effect1_innerShadow_193_351"/>
</filter>
</defs>
</svg>
