<svg width="1065" height="260" viewBox="0 0 1065 260" fill="none" xmlns="http://www.w3.org/2000/svg">
<g filter="url(#filter0_i_194_352)">
<path d="M398.776 20.6062C417.054 20.6062 433.027 24.2289 446.694 31.4742C460.361 38.7195 470.9 48.9289 478.31 62.1022C485.885 75.1109 489.672 90.1779 489.672 107.303C489.672 124.264 485.885 139.331 478.31 152.504C470.9 165.678 460.279 175.887 446.447 183.132C432.78 190.378 416.889 194 398.776 194H333.815V20.6062H398.776ZM396.059 157.444C412.032 157.444 424.464 153.081 433.356 144.353C442.248 135.626 446.694 123.276 446.694 107.303C446.694 91.3305 442.248 78.8982 433.356 70.0062C424.464 61.1142 412.032 56.6682 396.059 56.6682H376.052V157.444H396.059Z" fill="#10B981"/>
<path d="M654.066 56.1742L567.616 259.455H522.168L553.784 189.307L497.715 56.1742H544.892L576.755 142.377L608.371 56.1742H654.066Z" fill="#10B981"/>
<path d="M732.077 195.976C718.575 195.976 706.389 193.095 695.521 187.331C684.818 181.568 676.338 173.335 670.08 162.631C663.988 151.928 660.941 139.413 660.941 125.087C660.941 110.926 664.07 98.4935 670.327 87.7902C676.585 76.9222 685.147 68.6065 696.015 62.8432C706.883 57.0799 719.069 54.1982 732.571 54.1982C746.074 54.1982 758.259 57.0799 769.127 62.8432C779.995 68.6065 788.558 76.9222 794.815 87.7902C801.073 98.4935 804.201 110.926 804.201 125.087C804.201 139.249 800.99 151.763 794.568 162.631C788.311 173.335 779.666 181.568 768.633 187.331C757.765 193.095 745.58 195.976 732.077 195.976ZM732.077 159.42C740.146 159.42 746.98 156.456 752.578 150.528C758.342 144.6 761.223 136.12 761.223 125.087C761.223 114.055 758.424 105.574 752.825 99.6462C747.391 93.7182 740.64 90.7542 732.571 90.7542C724.338 90.7542 717.504 93.7182 712.07 99.6462C706.636 105.41 703.919 113.89 703.919 125.087C703.919 136.12 706.554 144.6 711.823 150.528C717.257 156.456 724.009 159.42 732.077 159.42Z" fill="#10B981"/>
<path d="M903.426 158.185V194H881.937C866.623 194 854.685 190.295 846.122 182.885C837.559 175.311 833.278 163.043 833.278 146.082V91.2482H816.482V56.1742H833.278V22.5822H875.515V56.1742H903.179V91.2482H875.515V146.576C875.515 150.693 876.503 153.657 878.479 155.468C880.455 157.28 883.748 158.185 888.359 158.185H903.426Z" fill="#10B981"/>
<path d="M918.555 124.84C918.555 110.679 921.189 98.2465 926.459 87.5432C931.893 76.8399 939.22 68.6065 948.442 62.8432C957.663 57.0799 967.955 54.1982 979.317 54.1982C989.032 54.1982 997.512 56.1742 1004.76 60.1262C1012.17 64.0782 1017.85 69.2652 1021.8 75.6872V56.1742H1064.04V194H1021.8V174.487C1017.68 180.909 1011.92 186.096 1004.51 190.048C997.265 194 988.785 195.976 979.07 195.976C967.872 195.976 957.663 193.095 948.442 187.331C939.22 181.403 931.893 173.088 926.459 162.384C921.189 151.516 918.555 139.002 918.555 124.84ZM1021.8 125.087C1021.8 114.549 1018.84 106.233 1012.91 100.14C1007.15 94.0475 1000.06 91.0012 991.667 91.0012C983.269 91.0012 976.106 94.0475 970.178 100.14C964.414 106.068 961.533 114.302 961.533 124.84C961.533 135.379 964.414 143.777 970.178 150.034C976.106 156.127 983.269 159.173 991.667 159.173C1000.06 159.173 1007.15 156.127 1012.91 150.034C1018.84 143.942 1021.8 135.626 1021.8 125.087Z" fill="#10B981"/>
<path d="M134.121 20.6062V54.4452H88.179V194H45.942V54.4452H0V20.6062H134.121Z" fill="#F5F5F5"/>
<path d="M197.556 79.1452C202.496 71.5705 208.671 65.6425 216.081 61.3612C223.491 56.9152 231.724 54.6922 240.781 54.6922V99.3992H229.172C218.633 99.3992 210.729 101.705 205.46 106.315C200.19 110.761 197.556 118.665 197.556 130.027V194H155.319V56.1742H197.556V79.1452Z" fill="#F5F5F5"/>
<path d="M303.206 56.1742V194H260.969V56.1742H303.206Z" fill="#F5F5F5"/>
<path d="M88.2707 194.2V152H46.0718V194.2H88.2707Z" fill="#10B981"/>
<path d="M282.171 0C270.518 0 261.072 9.4471 261.072 21.1C261.072 32.7529 270.518 42.2 282.171 42.2C293.824 42.2 303.271 32.7529 303.271 21.1C303.271 9.4471 293.824 0 282.171 0Z" fill="#F5F5F5"/>
</g>
<defs>
<filter id="filter0_i_194_352" x="0" y="0" width="1064.04" height="263.455" filterUnits="userSpaceOnUse" color-interpolation-filters="sRGB">
<feFlood flood-opacity="0" result="BackgroundImageFix"/>
<feBlend mode="normal" in="SourceGraphic" in2="BackgroundImageFix" result="shape"/>
<feColorMatrix in="SourceAlpha" type="matrix" values="0 0 0 0 0 0 0 0 0 0 0 0 0 0 0 0 0 0 127 0" result="hardAlpha"/>
<feOffset dy="4"/>
<feGaussianBlur stdDeviation="10"/>
<feComposite in2="hardAlpha" operator="arithmetic" k2="-1" k3="1"/>
<feColorMatrix type="matrix" values="0 0 0 0 1 0 0 0 0 1 0 0 0 0 1 0 0 0 0.25 0"/>
<feBlend mode="normal" in2="shape" result="effect1_innerShadow_194_352"/>
</filter>
</defs>
</svg>
